<?xml version="1.0" encoding="UTF-8" standalone="no"?>
<svg
   class="w-52 text-notWhite"
   viewBox="0 0 499.99999 499.99999"
   fill="none"
   version="1.1"
   id="svg158"
   sodipodi:docname="cohost.svg"
   width="500"
   height="500"
   inkscape:version="1.2 (dc2aedaf03, 2022-05-15)"
   xmlns:inkscape="http://www.inkscape.org/namespaces/inkscape"
   xmlns:sodipodi="http://sodipodi.sourceforge.net/DTD/sodipodi-0.dtd"
   xmlns="http://www.w3.org/2000/svg"
   xmlns:svg="http://www.w3.org/2000/svg">
  <defs
     id="defs162" />
  <sodipodi:namedview
     id="namedview160"
     pagecolor="#ffffff"
     bordercolor="#000000"
     borderopacity="0.25"
     inkscape:showpageshadow="2"
     inkscape:pageopacity="0.0"
     inkscape:pagecheckerboard="0"
     inkscape:deskcolor="#d1d1d1"
     showgrid="false"
     inkscape:document-units="px"
     inkscape:zoom="1.5612648"
     inkscape:cx="70.455697"
     inkscape:cy="270.93418"
     inkscape:window-width="3840"
     inkscape:window-height="2054"
     inkscape:window-x="-11"
     inkscape:window-y="-11"
     inkscape:window-maximized="1"
     inkscape:current-layer="svg158" />
  <path
     fill-rule="evenodd"
     clip-rule="evenodd"
     d="m 402.92151,369.85255 c -31.34184,19.19332 -67.47709,34.276 -108.40572,45.2424 -45.45714,12.17957 -88.30144,17.06323 -128.53378,14.64821 C 125.74996,427.32811 91.472824,416.83287 63.150333,398.25742 34.827843,379.68196 15.732536,351.97959 5.864579,315.15087 -4.0600013,278.11225 -1.3881208,244.52154 13.880238,214.37847 29.148561,184.23567 53.628156,158.16571 87.319303,136.16887 121.01045,114.17173 160.5843,97.08316 206.04084,84.903232 251.28691,72.779558 293.95999,67.886616 334.05916,70.224366 c 26.94062,1.570795 51.2405,6.776424 72.90245,15.616864 10.57707,4.317467 20.52498,9.501804 29.84374,15.5531 28.39923,18.4423 47.5333,46.07752 57.40222,82.90567 9.8661,36.82815 7.12943,70.3805 -8.21563,100.65673 -2.14419,4.22969 -4.46612,8.38011 -6.9658,12.4535 -1.76613,-7.95239 -5.31251,-14.88632 -10.63913,-20.80172 -2.61534,-2.90426 -5.52129,-5.57095 -8.72347,-8.00065 -6.55387,-4.97509 -14.33503,-8.95567 -23.34345,-11.94174 -13.41247,-4.44439 -28.35409,-6.66645 -44.82768,-6.66645 -16.55258,0 -31.55062,2.20288 -44.99977,6.6089 -13.44915,4.40631 -24.13906,11.03441 -32.06974,19.88483 -7.93069,8.85041 -11.89462,20.01881 -11.89462,33.5052 0,13.40995 3.96393,24.55888 11.89462,33.44768 7.93068,8.88879 18.62059,15.57528 32.06974,20.05833 13.44915,4.48023 28.44719,6.72316 44.99977,6.72316 3.8934,0 7.70216,-0.12412 11.4291,-0.37522 z M 259.54402,345.975 c -3.1418,3.37175 -8.67805,6.95255 -16.60901,10.7472 -7.93096,3.79183 -17.4901,6.9912 -28.67769,9.59808 -11.18759,2.60405 -23.21791,3.90749 -36.09151,3.90749 -11.26405,0 -22.29845,-1.09184 -33.10291,-3.27553 -10.80417,-2.18369 -20.57434,-5.65106 -29.30966,-10.40213 -8.7356,-4.75108 -15.68956,-10.95823 -20.861839,-18.62089 -5.172299,-7.66266 -7.758587,-16.97296 -7.758587,-27.93062 0,-11.11085 2.586288,-20.4976 7.758587,-28.16052 5.172279,-7.66266 12.126239,-13.83117 20.861839,-18.50522 8.73532,-4.67432 18.50549,-8.06525 29.30966,-10.17249 10.80446,-2.10723 21.83886,-3.1607 33.10291,-3.1607 12.95006,0 24.90392,1.1494 35.86157,3.4482 10.95766,2.29879 20.3636,5.3063 28.21782,9.0228 7.85451,3.71651 13.54395,7.68185 17.06888,11.89632 l -29.42477,19.30981 c -4.29119,-4.67404 -10.80446,-8.40945 -19.54006,-11.20648 -8.73532,-2.79676 -19.34821,-4.19528 -31.8384,-4.19528 -6.13012,0 -12.3178,0.47907 -18.56304,1.43662 -6.24523,0.95811 -11.97303,2.58627 -17.18369,4.88507 -5.2104,2.29879 -9.40595,5.51705 -12.58584,9.65506 -3.18018,4.13772 -4.77027,9.38676 -4.77027,15.74681 0,6.28333 1.59009,11.47509 4.77027,15.57444 3.17989,4.09963 7.37544,7.35626 12.58584,9.76989 5.21066,2.4139 10.93846,4.11882 17.18369,5.11502 6.24524,0.9962 12.43292,1.49416 18.56304,1.49416 12.26025,0 22.89233,-1.53253 31.89596,-4.59758 9.00362,-3.06508 15.34449,-6.59 19.02264,-10.57454 z m 131.94839,-4.48276 c 16.01372,0 28.42745,-2.87349 37.24119,-8.62049 8.81093,-5.74698 13.21781,-13.37128 13.21781,-22.87315 0,-9.7318 -4.42663,-17.37527 -13.27705,-22.9307 -8.85043,-5.5554 -21.24441,-8.33327 -37.18195,-8.33327 -16.01652,0 -28.48669,2.77787 -37.41329,8.33327 -8.9266,5.55543 -13.38989,13.1989 -13.38989,22.9307 0,9.65506 4.46329,17.31773 13.38989,22.98826 8.9266,5.67025 21.39677,8.50538 37.41329,8.50538 z"
     fill="currentColor"
     id="path148"
     style="stroke-width:2.8213" />
</svg>
