<?xml version="1.0" encoding="UTF-8" standalone="no"?>
<svg
   viewBox="0 0 500 500"
   version="1.1"
   id="svg973"
   sodipodi:docname="discord.svg"
   width="500"
   height="500"
   inkscape:version="1.2 (dc2aedaf03, 2022-05-15)"
   xmlns:inkscape="http://www.inkscape.org/namespaces/inkscape"
   xmlns:sodipodi="http://sodipodi.sourceforge.net/DTD/sodipodi-0.dtd"
   xmlns="http://www.w3.org/2000/svg"
   xmlns:svg="http://www.w3.org/2000/svg">
  <defs
     id="defs977" />
  <sodipodi:namedview
     id="namedview975"
     pagecolor="#ffffff"
     bordercolor="#000000"
     borderopacity="0.25"
     inkscape:showpageshadow="2"
     inkscape:pageopacity="0.0"
     inkscape:pagecheckerboard="0"
     inkscape:deskcolor="#d1d1d1"
     showgrid="false"
     inkscape:zoom="2.0058594"
     inkscape:cx="321.8072"
     inkscape:cy="257.24635"
     inkscape:window-width="3840"
     inkscape:window-height="2054"
     inkscape:window-x="-11"
     inkscape:window-y="-11"
     inkscape:window-maximized="1"
     inkscape:current-layer="svg973" />
  <!-- Font Awesome Pro 5.15.4 by @fontawesome - https://fontawesome.com License - https://fontawesome.com/license (Commercial License) -->
  <path
     d="m 423.9223,91.697766 a 1.2755147,1.2755147 0 0 0 -0.64967,-0.59524 412.47169,412.47169 0 0 0 -101.77417,-31.552831 1.5442232,1.5442232 0 0 0 -1.63521,0.773812 286.95765,286.95765 0 0 0 -12.67011,26.0205 380.82447,380.82447 0 0 0 -114.30822,0 263.21607,263.21607 0 0 0 -12.86994,-26.0205 1.6071485,1.6071485 0 0 0 -1.63607,-0.773812 411.30163,411.30163 0 0 0 -101.775867,31.553682 1.4557874,1.4557874 0 0 0 -0.670071,0.574831 C 11.112165,188.47958 -6.6447004,282.90082 2.0662146,376.15286 a 1.7142918,1.7142918 0 0 0 0.6505121,1.16922 414.68345,414.68345 0 0 0 124.8516333,63.08611 1.6156521,1.6156521 0 0 0 1.75426,-0.57483 296.08948,296.08948 0 0 0 25.54175,-41.53246 1.5816382,1.5816382 0 0 0 -0.86649,-2.20069 273.10726,273.10726 0 0 1 -39.00354,-18.58255 1.6028968,1.6028968 0 0 1 -0.15732,-2.65818 c 2.62076,-1.96343 5.24322,-4.00596 7.74578,-6.0689 a 1.5467743,1.5467743 0 0 1 1.61565,-0.21768 c 81.82767,37.34452 170.41727,37.34452 251.27639,0 a 1.5408218,1.5408218 0 0 1 1.63607,0.19812 c 2.50342,2.06293 5.12501,4.12503 7.76533,6.08846 a 1.6020465,1.6020465 0 0 1 -0.13776,2.65818 256.29937,256.29937 0 0 1 -39.02224,18.56299 1.5943934,1.5943934 0 0 0 -0.85035,2.22025 332.53093,332.53093 0 0 0 25.52221,41.5095 1.5850396,1.5850396 0 0 0 1.75425,0.59524 413.30758,413.30758 0 0 0 125.05316,-63.08356 1.6003458,1.6003458 0 0 0 0.65052,-1.14966 C 508.27463,268.36336 480.38678,174.71591 423.9223,91.697766 Z M 167.08465,319.37205 c -24.63614,0 -44.93553,-22.60809 -44.93553,-50.37349 0,-27.76539 19.90568,-50.37517 44.93553,-50.37517 25.22544,0 45.3284,22.80621 44.93469,50.37348 0,27.76709 -19.90654,50.37518 -44.93469,50.37518 z m 166.14005,0 c -24.63529,0 -44.93469,-22.60809 -44.93469,-50.37349 0,-27.76539 19.90569,-50.37517 44.93469,-50.37517 25.22714,0 45.32924,22.80621 44.93553,50.37348 0,27.76709 -19.70839,50.37518 -44.93553,50.37518 z"
     id="path971"
     style="stroke-width:0.850343" />
</svg>
