<?xml version="1.0" encoding="UTF-8" standalone="no"?>
<svg
   viewBox="0 0 500 500"
   version="1.1"
   id="svg1098"
   sodipodi:docname="email.svg"
   width="500"
   height="500"
   inkscape:version="1.2 (dc2aedaf03, 2022-05-15)"
   xmlns:inkscape="http://www.inkscape.org/namespaces/inkscape"
   xmlns:sodipodi="http://sodipodi.sourceforge.net/DTD/sodipodi-0.dtd"
   xmlns="http://www.w3.org/2000/svg"
   xmlns:svg="http://www.w3.org/2000/svg">
  <defs
     id="defs1102" />
  <sodipodi:namedview
     id="namedview1100"
     pagecolor="#ffffff"
     bordercolor="#000000"
     borderopacity="0.25"
     inkscape:showpageshadow="2"
     inkscape:pageopacity="0.0"
     inkscape:pagecheckerboard="0"
     inkscape:deskcolor="#d1d1d1"
     showgrid="false"
     inkscape:zoom="2.0058594"
     inkscape:cx="256.99708"
     inkscape:cy="256.74781"
     inkscape:window-width="3840"
     inkscape:window-height="2054"
     inkscape:window-x="-11"
     inkscape:window-y="-11"
     inkscape:window-maximized="1"
     inkscape:current-layer="svg1098" />
  <!-- Font Awesome Pro 5.15.4 by @fontawesome - https://fontawesome.com License - https://fontawesome.com/license (Commercial License) -->
  <path
     d="M 490.52734,186.32814 C 494.33594,183.30079 500,186.13281 500,190.91798 V 390.62499 C 500,416.50391 479.00391,437.5 453.12499,437.5 H 46.875 C 20.996094,437.5 0,416.50391 0,390.62499 V 191.01562 c 0,-4.88281 5.5664063,-7.61718 9.4726565,-4.58984 C 31.347655,203.41797 60.351562,225 159.96094,297.36328 c 20.60547,15.03906 55.37109,46.67969 90.03906,46.48438 34.86328,0.29297 70.3125,-32.03125 90.13672,-46.48438 C 439.74609,225 468.65234,203.32031 490.52734,186.32814 Z M 250,312.5 c 22.65625,0.39062 55.27345,-28.51562 71.67969,-40.42969 C 451.26953,178.02734 461.13281,169.82422 491.01562,146.38672 496.67969,141.99219 500,135.15625 500,127.92969 V 109.37501 C 500,83.496094 479.00391,62.5 453.12499,62.5 H 46.875 C 20.996094,62.5 0,83.496094 0,109.37501 v 18.55468 c 0,7.22656 3.320312,13.96484 8.9843749,18.45703 C 38.867187,169.72655 48.730469,178.02734 178.32031,272.07031 194.72655,283.98437 227.34375,312.89062 250,312.5 Z"
     id="path1096"
     style="stroke-width:0.976562" />
</svg>
