<?xml version="1.0" encoding="UTF-8" standalone="no"?>
<svg
   viewBox="0 0 500 500"
   version="1.1"
   id="svg4"
   sodipodi:docname="github.svg"
   width="500"
   height="500"
   inkscape:version="1.2 (dc2aedaf03, 2022-05-15)"
   xmlns:inkscape="http://www.inkscape.org/namespaces/inkscape"
   xmlns:sodipodi="http://sodipodi.sourceforge.net/DTD/sodipodi-0.dtd"
   xmlns="http://www.w3.org/2000/svg"
   xmlns:svg="http://www.w3.org/2000/svg">
  <defs
     id="defs8" />
  <sodipodi:namedview
     id="namedview6"
     pagecolor="#ffffff"
     bordercolor="#000000"
     borderopacity="0.25"
     inkscape:showpageshadow="2"
     inkscape:pageopacity="0.0"
     inkscape:pagecheckerboard="0"
     inkscape:deskcolor="#d1d1d1"
     showgrid="false"
     inkscape:zoom="2"
     inkscape:cx="291.75"
     inkscape:cy="251.5"
     inkscape:window-width="3840"
     inkscape:window-height="2054"
     inkscape:window-x="-11"
     inkscape:window-y="-11"
     inkscape:window-maximized="1"
     inkscape:current-layer="svg4" />
  <!-- Font Awesome Pro 5.15.4 by @fontawesome - https://fontawesome.com License - https://fontawesome.com/license (Commercial License) -->
  <path
     d="m 167.2379,398.78657 c 0,2.01614 -2.31855,3.62904 -5.24193,3.62904 -3.32662,0.30242 -5.64516,-1.31048 -5.64516,-3.62904 0,-2.01612 2.31854,-3.62902 5.24193,-3.62902 3.0242,-0.30242 5.64516,1.31048 5.64516,3.62902 z m -31.3508,-4.53628 c -0.70565,2.01613 1.31048,4.33468 4.33467,4.93952 2.62097,1.00806 5.64517,0 6.25,-2.01614 0.60484,-2.01612 -1.31048,-4.33467 -4.33467,-5.24193 -2.62097,-0.70564 -5.54436,0.30242 -6.25,2.31855 z m 44.55645,-1.71372 c -2.92339,0.70566 -4.93952,2.62098 -4.6371,4.93953 0.30242,2.01613 2.92339,3.32661 5.94758,2.62097 2.92339,-0.70565 4.93952,-2.62097 4.6371,-4.6371 -0.30242,-1.91532 -3.02419,-3.22581 -5.94758,-2.9234 z M 246.77419,6.2462574 C 106.95565,6.2462574 0,112.39545 0,252.214 c 0,111.79435 70.362903,207.45967 170.86694,241.12902 12.90322,2.31856 17.43951,-5.64515 17.43951,-12.19757 0,-6.25 -0.30242,-40.7258 -0.30242,-61.89516 0,0 -70.56451,15.12096 -85.38306,-30.04032 0,0 -11.491938,-29.33468 -28.024196,-36.89517 0,0 -23.084677,-15.8266 1.612903,-15.52419 0,0 25.100803,2.01613 38.911293,26.00807 22.07661,38.91129 59.07258,27.72177 73.4879,21.06855 2.31855,-16.12903 8.87097,-27.31855 16.12903,-33.97178 -56.3508,-6.25 -113.205642,-14.41533 -113.205642,-111.39113 0,-27.72177 7.661292,-41.63307 23.790322,-59.375 -2.62097,-6.55241 -11.18952,-33.56854 2.62097,-68.44759 21.06855,-6.55241 69.55645,27.21776 69.55645,27.21776 20.16129,-5.64517 41.83468,-8.56855 63.30645,-8.56855 21.47178,0 43.14516,2.92338 63.30645,8.56855 0,0 48.48791,-33.87097 69.55645,-27.21776 13.81049,34.97985 5.24194,61.89518 2.62097,68.44759 16.12903,17.84275 26.00807,31.75404 26.00807,59.375 0,97.27823 -59.375,105.04033 -115.72581,111.39113 9.27419,7.96371 17.1371,23.08467 17.1371,46.7742 0,33.97177 -0.30242,76.00806 -0.30242,84.27419 0,6.55242 4.63709,14.51613 17.43951,12.19758 C 431.65323,459.67367 500,364.00835 500,252.214 500,112.39545 386.59274,6.2462574 246.77419,6.2462574 Z M 97.983874,353.92771 c -1.310492,1.00807 -1.008073,3.32661 0.705644,5.24194 1.612902,1.6129 3.931452,2.31855 5.241932,1.00806 1.31049,-1.00806 1.00807,-3.32661 -0.70564,-5.24193 -1.61291,-1.61291 -3.931454,-2.31855 -5.241936,-1.00807 z m -10.8871,-8.16532 c -0.705645,1.31048 0.30242,2.92339 2.318549,3.93145 1.612903,1.00806 3.629033,0.70565 4.334677,-0.70564 0.705644,-1.31049 -0.302419,-2.9234 -2.318548,-3.93146 -2.016129,-0.60484 -3.629033,-0.30242 -4.334678,0.70565 z m 32.661286,35.8871 c -1.6129,1.31048 -1.00806,4.33467 1.31049,6.25 2.31855,2.31854 5.24193,2.62096 6.55242,1.00806 1.31048,-1.31048 0.70564,-4.33468 -1.31049,-6.25 -2.21774,-2.31855 -5.24193,-2.62098 -6.55242,-1.00806 z m -11.49193,-14.81855 c -1.6129,1.00806 -1.6129,3.62903 0,5.94758 1.6129,2.31855 4.33468,3.32661 5.64516,2.31855 1.6129,-1.3105 1.6129,-3.93146 0,-6.25 -1.41129,-2.31855 -4.03226,-3.32662 -5.64516,-2.01613 z"
     id="path2"
     style="stroke-width:1.00806" />
</svg>
