<?xml version="1.0" encoding="UTF-8" standalone="no"?>
<svg
   viewBox="0 0 500 500"
   version="1.1"
   id="svg1223"
   sodipodi:docname="mastodon.svg"
   width="500"
   height="500"
   inkscape:version="1.2 (dc2aedaf03, 2022-05-15)"
   xmlns:inkscape="http://www.inkscape.org/namespaces/inkscape"
   xmlns:sodipodi="http://sodipodi.sourceforge.net/DTD/sodipodi-0.dtd"
   xmlns="http://www.w3.org/2000/svg"
   xmlns:svg="http://www.w3.org/2000/svg">
  <defs
     id="defs1227" />
  <sodipodi:namedview
     id="namedview1225"
     pagecolor="#ffffff"
     bordercolor="#000000"
     borderopacity="0.25"
     inkscape:showpageshadow="2"
     inkscape:pageopacity="0.0"
     inkscape:pagecheckerboard="0"
     inkscape:deskcolor="#d1d1d1"
     showgrid="false"
     inkscape:zoom="2.0058594"
     inkscape:cx="225.09055"
     inkscape:cy="256.74781"
     inkscape:window-width="3840"
     inkscape:window-height="2054"
     inkscape:window-x="-11"
     inkscape:window-y="-11"
     inkscape:window-maximized="1"
     inkscape:current-layer="svg1223" />
  <!-- Font Awesome Pro 5.15.4 by @fontawesome - https://fontawesome.com License - https://fontawesome.com/license (Commercial License) -->
  <path
     d="m 483.44254,164.0739 c 0,-108.576016 -71.16644,-140.411577 -71.16644,-140.411577 -69.83717,-32.0589692 -255.31004,-31.723858 -324.476983,0 0,0 -71.177613,31.835561 -71.177613,140.411577 0,129.24122 -7.3724463,289.75947 117.992636,322.93548 45.25119,11.95228 84.13525,14.52148 115.42347,12.73422 56.75666,-3.12771 88.60338,-20.21838 88.60338,-20.21838 l -1.89895,-41.21867 c 0,0 -40.55962,12.73422 -86.14592,11.28208 -45.13947,-1.56386 -92.71408,-4.91497 -100.12004,-60.32001 a 114.54099,114.54099 0 0 1 -1.00534,-15.52682 c 95.6519,23.34608 177.21796,10.16504 199.67041,7.48415 62.68812,-7.48415 117.28891,-46.13364 124.24805,-81.43203 10.94696,-55.62845 10.05334,-135.72002 10.05334,-135.72002 z M 399.5307,303.92697 H 347.44324 V 176.36132 c 0,-55.51676 -71.49037,-57.63912 -71.49037,7.70756 v 69.81481 H 224.20054 V 184.0577 c 0,-65.34668 -71.4904,-63.2243 -71.4904,-7.70756 V 303.9158 h -52.19915 c 0,-136.39025 -5.808581,-165.20981 20.56466,-195.48152 28.93127,-32.282378 89.16192,-34.404749 115.98198,6.81393 l 12.95763,21.78223 12.95764,-21.78223 c 26.93177,-41.442086 87.26295,-38.8729 115.98198,-6.81393 26.48495,30.49512 20.55347,59.20297 20.55347,195.48152 z"
     id="path1221"
     style="stroke-width:1.11704" />
</svg>
