<?xml version="1.0" encoding="UTF-8" standalone="no"?>
<svg
   viewBox="0 0 500 500"
   version="1.1"
   id="svg1348"
   sodipodi:docname="slack.svg"
   width="500"
   height="500"
   inkscape:version="1.2 (dc2aedaf03, 2022-05-15)"
   xmlns:inkscape="http://www.inkscape.org/namespaces/inkscape"
   xmlns:sodipodi="http://sodipodi.sourceforge.net/DTD/sodipodi-0.dtd"
   xmlns="http://www.w3.org/2000/svg"
   xmlns:svg="http://www.w3.org/2000/svg">
  <defs
     id="defs1352" />
  <sodipodi:namedview
     id="namedview1350"
     pagecolor="#ffffff"
     bordercolor="#000000"
     borderopacity="0.25"
     inkscape:showpageshadow="2"
     inkscape:pageopacity="0.0"
     inkscape:pagecheckerboard="0"
     inkscape:deskcolor="#d1d1d1"
     showgrid="false"
     inkscape:zoom="2.0058594"
     inkscape:cx="225.09055"
     inkscape:cy="256.74781"
     inkscape:window-width="3840"
     inkscape:window-height="2054"
     inkscape:window-x="-11"
     inkscape:window-y="-11"
     inkscape:window-maximized="1"
     inkscape:current-layer="svg1348" />
  <!-- Font Awesome Pro 5.15.4 by @fontawesome - https://fontawesome.com License - https://fontawesome.com/license (Commercial License) -->
  <path
     d="m 105.04464,315.95982 c 0,28.90625 -23.616069,52.52232 -52.522319,52.52232 C 23.616071,368.48214 0,344.86607 0,315.95982 0,287.05357 23.616071,263.4375 52.522321,263.4375 h 52.522319 z m 26.47322,0 c 0,-28.90625 23.61607,-52.52232 52.52232,-52.52232 28.90625,0 52.52232,23.61607 52.52232,52.52232 v 131.51786 c 0,28.90625 -23.61607,52.52232 -52.52232,52.52232 -28.90625,0 -52.52232,-23.61607 -52.52232,-52.52232 z m 52.52232,-210.91518 c -28.90625,0 -52.52232,-23.616069 -52.52232,-52.522319 C 131.51786,23.616071 155.13393,0 184.04018,0 212.94643,0 236.5625,23.616071 236.5625,52.522321 v 52.522319 z m 0,26.47322 c 28.90625,0 52.52232,23.61607 52.52232,52.52232 0,28.90625 -23.61607,52.52232 -52.52232,52.52232 H 52.522321 C 23.616071,236.5625 0,212.94643 0,184.04018 0,155.13393 23.616071,131.51786 52.522321,131.51786 Z m 210.91518,52.52232 c 0,-28.90625 23.61607,-52.52232 52.52232,-52.52232 28.90625,0 52.52232,23.61607 52.52232,52.52232 0,28.90625 -23.61607,52.52232 -52.52232,52.52232 h -52.52232 z m -26.47322,0 c 0,28.90625 -23.61607,52.52232 -52.52232,52.52232 -28.90625,0 -52.52232,-23.61607 -52.52232,-52.52232 V 52.522321 C 263.4375,23.616071 287.05357,0 315.95982,0 c 28.90625,0 52.52232,23.616071 52.52232,52.522321 z m -52.52232,210.91518 c 28.90625,0 52.52232,23.61607 52.52232,52.52232 0,28.90625 -23.61607,52.52232 -52.52232,52.52232 -28.90625,0 -52.52232,-23.61607 -52.52232,-52.52232 v -52.52232 z m 0,-26.47322 c -28.90625,0 -52.52232,-23.61607 -52.52232,-52.52232 0,-28.90625 23.61607,-52.52232 52.52232,-52.52232 h 131.51786 c 28.90625,0 52.52232,23.61607 52.52232,52.52232 0,28.90625 -23.61607,52.52232 -52.52232,52.52232 z"
     id="path1346"
     style="stroke-width:1.11607" />
</svg>
